<svg xmlns="http://www.w3.org/2000/svg" width="600" height="400" viewBox="0 0 600 400" fill="none" role="img" aria-label="Mobile article cover">
  <rect width="600" height="400" fill="#EFEAFF"/>
  <rect x="309.8" y="322.4" width="31.7" height="31.7" rx="7.9" fill="#4335A7" opacity=".1"/><path d="M300.9 305.3 L318.0 271.2 L335.0 305.3 Z" fill="#4335A7" opacity=".1"/><rect x="324.1" y="178.0" width="39.8" height="39.8" rx="10.0" fill="#4335A7" opacity=".1"/><rect x="69.5" y="181.0" width="45.3" height="45.3" rx="11.3" fill="#4335A7" opacity=".1"/><circle cx="289.9" cy="73.3" r="10.6" fill="#4335A7" opacity=".12"/><path d="M527.6 299.6 L538.7 277.5 L549.8 299.6 Z" fill="#4335A7" opacity=".1"/><rect x="248.5" y="287.1" width="15.5" height="15.5" rx="3.9" fill="#4335A7" opacity=".1"/>
  <g opacity=".3"><circle cx="460" cy="300" r="2" fill="#4335A7"/><circle cx="476" cy="300" r="2" fill="#4335A7"/><circle cx="492" cy="300" r="2" fill="#4335A7"/><circle cx="508" cy="300" r="2" fill="#4335A7"/><circle cx="524" cy="300" r="2" fill="#4335A7"/><circle cx="540" cy="300" r="2" fill="#4335A7"/><circle cx="556" cy="300" r="2" fill="#4335A7"/><circle cx="572" cy="300" r="2" fill="#4335A7"/><circle cx="460" cy="316" r="2" fill="#4335A7"/><circle cx="476" cy="316" r="2" fill="#4335A7"/><circle cx="492" cy="316" r="2" fill="#4335A7"/><circle cx="508" cy="316" r="2" fill="#4335A7"/><circle cx="524" cy="316" r="2" fill="#4335A7"/><circle cx="540" cy="316" r="2" fill="#4335A7"/><circle cx="556" cy="316" r="2" fill="#4335A7"/><circle cx="572" cy="316" r="2" fill="#4335A7"/><circle cx="460" cy="332" r="2" fill="#4335A7"/><circle cx="476" cy="332" r="2" fill="#4335A7"/><circle cx="492" cy="332" r="2" fill="#4335A7"/><circle cx="508" cy="332" r="2" fill="#4335A7"/><circle cx="524" cy="332" r="2" fill="#4335A7"/><circle cx="540" cy="332" r="2" fill="#4335A7"/><circle cx="556" cy="332" r="2" fill="#4335A7"/><circle cx="572" cy="332" r="2" fill="#4335A7"/><circle cx="460" cy="348" r="2" fill="#4335A7"/><circle cx="476" cy="348" r="2" fill="#4335A7"/><circle cx="492" cy="348" r="2" fill="#4335A7"/><circle cx="508" cy="348" r="2" fill="#4335A7"/><circle cx="524" cy="348" r="2" fill="#4335A7"/><circle cx="540" cy="348" r="2" fill="#4335A7"/><circle cx="556" cy="348" r="2" fill="#4335A7"/><circle cx="572" cy="348" r="2" fill="#4335A7"/><circle cx="460" cy="364" r="2" fill="#4335A7"/><circle cx="476" cy="364" r="2" fill="#4335A7"/><circle cx="492" cy="364" r="2" fill="#4335A7"/><circle cx="508" cy="364" r="2" fill="#4335A7"/><circle cx="524" cy="364" r="2" fill="#4335A7"/><circle cx="540" cy="364" r="2" fill="#4335A7"/><circle cx="556" cy="364" r="2" fill="#4335A7"/><circle cx="572" cy="364" r="2" fill="#4335A7"/></g>
  <rect x="40" y="150" width="360" height="120" rx="18" fill="#fff" opacity=".92"/>
  <rect x="64" y="178" width="46" height="8" rx="4" fill="#4335A7"/>
  <text x="64" y="218" font-family="Urbanist, ui-sans-serif, system-ui, sans-serif" font-size="24" font-weight="800" fill="#4335A7" text-anchor="start">Mobile</text>
  <rect x="64" y="234" width="220" height="7" rx="3.5" fill="#263137" opacity=".2"/>
  <rect x="64" y="249" width="150" height="7" rx="3.5" fill="#263137" opacity=".12"/>
  <text x="560" y="372" font-family="Urbanist, ui-sans-serif, system-ui, sans-serif" font-size="13" font-weight="700" fill="#4335A7" text-anchor="end">ElevateBox</text></svg>
