<svg xmlns="http://www.w3.org/2000/svg" width="600" height="400" viewBox="0 0 600 400" fill="none" role="img" aria-label="Marketing article cover">
  <rect width="600" height="400" fill="#FFF6E9"/>
  <circle cx="420.2" cy="226.7" r="15.8" fill="#8a5a12" opacity=".12"/><rect x="472.8" y="245.5" width="40.7" height="40.7" rx="10.2" fill="#8a5a12" opacity=".1"/><path d="M302.3 144.2 L312.8 123.2 L323.3 144.2 Z" fill="#8a5a12" opacity=".1"/><circle cx="108.2" cy="140.0" r="18.4" fill="#8a5a12" opacity=".12"/><circle cx="447.9" cy="233.9" r="18.9" fill="#8a5a12" opacity=".12"/><circle cx="509.5" cy="72.9" r="21.7" fill="#8a5a12" opacity=".12"/><circle cx="331.3" cy="201.7" r="22.9" fill="#8a5a12" opacity=".12"/>
  <g opacity=".3"><circle cx="460" cy="300" r="2" fill="#8a5a12"/><circle cx="476" cy="300" r="2" fill="#8a5a12"/><circle cx="492" cy="300" r="2" fill="#8a5a12"/><circle cx="508" cy="300" r="2" fill="#8a5a12"/><circle cx="524" cy="300" r="2" fill="#8a5a12"/><circle cx="540" cy="300" r="2" fill="#8a5a12"/><circle cx="556" cy="300" r="2" fill="#8a5a12"/><circle cx="572" cy="300" r="2" fill="#8a5a12"/><circle cx="460" cy="316" r="2" fill="#8a5a12"/><circle cx="476" cy="316" r="2" fill="#8a5a12"/><circle cx="492" cy="316" r="2" fill="#8a5a12"/><circle cx="508" cy="316" r="2" fill="#8a5a12"/><circle cx="524" cy="316" r="2" fill="#8a5a12"/><circle cx="540" cy="316" r="2" fill="#8a5a12"/><circle cx="556" cy="316" r="2" fill="#8a5a12"/><circle cx="572" cy="316" r="2" fill="#8a5a12"/><circle cx="460" cy="332" r="2" fill="#8a5a12"/><circle cx="476" cy="332" r="2" fill="#8a5a12"/><circle cx="492" cy="332" r="2" fill="#8a5a12"/><circle cx="508" cy="332" r="2" fill="#8a5a12"/><circle cx="524" cy="332" r="2" fill="#8a5a12"/><circle cx="540" cy="332" r="2" fill="#8a5a12"/><circle cx="556" cy="332" r="2" fill="#8a5a12"/><circle cx="572" cy="332" r="2" fill="#8a5a12"/><circle cx="460" cy="348" r="2" fill="#8a5a12"/><circle cx="476" cy="348" r="2" fill="#8a5a12"/><circle cx="492" cy="348" r="2" fill="#8a5a12"/><circle cx="508" cy="348" r="2" fill="#8a5a12"/><circle cx="524" cy="348" r="2" fill="#8a5a12"/><circle cx="540" cy="348" r="2" fill="#8a5a12"/><circle cx="556" cy="348" r="2" fill="#8a5a12"/><circle cx="572" cy="348" r="2" fill="#8a5a12"/><circle cx="460" cy="364" r="2" fill="#8a5a12"/><circle cx="476" cy="364" r="2" fill="#8a5a12"/><circle cx="492" cy="364" r="2" fill="#8a5a12"/><circle cx="508" cy="364" r="2" fill="#8a5a12"/><circle cx="524" cy="364" r="2" fill="#8a5a12"/><circle cx="540" cy="364" r="2" fill="#8a5a12"/><circle cx="556" cy="364" r="2" fill="#8a5a12"/><circle cx="572" cy="364" r="2" fill="#8a5a12"/></g>
  <rect x="40" y="150" width="360" height="120" rx="18" fill="#fff" opacity=".92"/>
  <rect x="64" y="178" width="46" height="8" rx="4" fill="#8a5a12"/>
  <text x="64" y="218" font-family="Urbanist, ui-sans-serif, system-ui, sans-serif" font-size="24" font-weight="800" fill="#8a5a12" text-anchor="start">Marketing</text>
  <rect x="64" y="234" width="220" height="7" rx="3.5" fill="#263137" opacity=".2"/>
  <rect x="64" y="249" width="150" height="7" rx="3.5" fill="#263137" opacity=".12"/>
  <text x="560" y="372" font-family="Urbanist, ui-sans-serif, system-ui, sans-serif" font-size="13" font-weight="700" fill="#8a5a12" text-anchor="end">ElevateBox</text></svg>
