<svg xmlns="http://www.w3.org/2000/svg" width="600" height="400" viewBox="0 0 600 400" fill="none" role="img" aria-label="E-commerce article cover">
  <rect width="600" height="400" fill="#E3ECFF"/>
  <rect x="362.1" y="70.4" width="45.1" height="45.1" rx="11.3" fill="#013186" opacity=".1"/><rect x="533.7" y="103.7" width="46.0" height="46.0" rx="11.5" fill="#013186" opacity=".1"/><circle cx="502.8" cy="295.5" r="16.4" fill="#013186" opacity=".12"/><path d="M119.3 304.3 L137.0 268.8 L154.7 304.3 Z" fill="#013186" opacity=".1"/><circle cx="206.1" cy="251.3" r="15.5" fill="#013186" opacity=".12"/><rect x="59.6" y="137.7" width="38.8" height="38.8" rx="9.7" fill="#013186" opacity=".1"/><rect x="380.4" y="234.1" width="28.4" height="28.4" rx="7.1" fill="#013186" opacity=".1"/>
  <g opacity=".3"><circle cx="460" cy="300" r="2" fill="#013186"/><circle cx="476" cy="300" r="2" fill="#013186"/><circle cx="492" cy="300" r="2" fill="#013186"/><circle cx="508" cy="300" r="2" fill="#013186"/><circle cx="524" cy="300" r="2" fill="#013186"/><circle cx="540" cy="300" r="2" fill="#013186"/><circle cx="556" cy="300" r="2" fill="#013186"/><circle cx="572" cy="300" r="2" fill="#013186"/><circle cx="460" cy="316" r="2" fill="#013186"/><circle cx="476" cy="316" r="2" fill="#013186"/><circle cx="492" cy="316" r="2" fill="#013186"/><circle cx="508" cy="316" r="2" fill="#013186"/><circle cx="524" cy="316" r="2" fill="#013186"/><circle cx="540" cy="316" r="2" fill="#013186"/><circle cx="556" cy="316" r="2" fill="#013186"/><circle cx="572" cy="316" r="2" fill="#013186"/><circle cx="460" cy="332" r="2" fill="#013186"/><circle cx="476" cy="332" r="2" fill="#013186"/><circle cx="492" cy="332" r="2" fill="#013186"/><circle cx="508" cy="332" r="2" fill="#013186"/><circle cx="524" cy="332" r="2" fill="#013186"/><circle cx="540" cy="332" r="2" fill="#013186"/><circle cx="556" cy="332" r="2" fill="#013186"/><circle cx="572" cy="332" r="2" fill="#013186"/><circle cx="460" cy="348" r="2" fill="#013186"/><circle cx="476" cy="348" r="2" fill="#013186"/><circle cx="492" cy="348" r="2" fill="#013186"/><circle cx="508" cy="348" r="2" fill="#013186"/><circle cx="524" cy="348" r="2" fill="#013186"/><circle cx="540" cy="348" r="2" fill="#013186"/><circle cx="556" cy="348" r="2" fill="#013186"/><circle cx="572" cy="348" r="2" fill="#013186"/><circle cx="460" cy="364" r="2" fill="#013186"/><circle cx="476" cy="364" r="2" fill="#013186"/><circle cx="492" cy="364" r="2" fill="#013186"/><circle cx="508" cy="364" r="2" fill="#013186"/><circle cx="524" cy="364" r="2" fill="#013186"/><circle cx="540" cy="364" r="2" fill="#013186"/><circle cx="556" cy="364" r="2" fill="#013186"/><circle cx="572" cy="364" r="2" fill="#013186"/></g>
  <rect x="40" y="150" width="360" height="120" rx="18" fill="#fff" opacity=".92"/>
  <rect x="64" y="178" width="46" height="8" rx="4" fill="#013186"/>
  <text x="64" y="218" font-family="Urbanist, ui-sans-serif, system-ui, sans-serif" font-size="24" font-weight="800" fill="#013186" text-anchor="start">E-commerce</text>
  <rect x="64" y="234" width="220" height="7" rx="3.5" fill="#263137" opacity=".2"/>
  <rect x="64" y="249" width="150" height="7" rx="3.5" fill="#263137" opacity=".12"/>
  <text x="560" y="372" font-family="Urbanist, ui-sans-serif, system-ui, sans-serif" font-size="13" font-weight="700" fill="#013186" text-anchor="end">ElevateBox</text></svg>
