<svg xmlns="http://www.w3.org/2000/svg" width="600" height="400" viewBox="0 0 600 400" fill="none" role="img" aria-label="Fintech article cover">
  <rect width="600" height="400" fill="#F0FCFF"/>
  <path d="M201.3 115.6 L212.7 92.9 L224.1 115.6 Z" fill="#0a6f85" opacity=".1"/><circle cx="395.0" cy="288.6" r="14.6" fill="#0a6f85" opacity=".12"/><rect x="290.6" y="110.3" width="28.4" height="28.4" rx="7.1" fill="#0a6f85" opacity=".1"/><rect x="53.2" y="232.9" width="45.7" height="45.7" rx="11.4" fill="#0a6f85" opacity=".1"/><path d="M488.2 165.9 L499.3 143.7 L510.4 165.9 Z" fill="#0a6f85" opacity=".1"/><circle cx="490.1" cy="242.8" r="10.4" fill="#0a6f85" opacity=".12"/><rect x="510.2" y="163.2" width="44.0" height="44.0" rx="11.0" fill="#0a6f85" opacity=".1"/>
  <g opacity=".3"><circle cx="460" cy="300" r="2" fill="#0a6f85"/><circle cx="476" cy="300" r="2" fill="#0a6f85"/><circle cx="492" cy="300" r="2" fill="#0a6f85"/><circle cx="508" cy="300" r="2" fill="#0a6f85"/><circle cx="524" cy="300" r="2" fill="#0a6f85"/><circle cx="540" cy="300" r="2" fill="#0a6f85"/><circle cx="556" cy="300" r="2" fill="#0a6f85"/><circle cx="572" cy="300" r="2" fill="#0a6f85"/><circle cx="460" cy="316" r="2" fill="#0a6f85"/><circle cx="476" cy="316" r="2" fill="#0a6f85"/><circle cx="492" cy="316" r="2" fill="#0a6f85"/><circle cx="508" cy="316" r="2" fill="#0a6f85"/><circle cx="524" cy="316" r="2" fill="#0a6f85"/><circle cx="540" cy="316" r="2" fill="#0a6f85"/><circle cx="556" cy="316" r="2" fill="#0a6f85"/><circle cx="572" cy="316" r="2" fill="#0a6f85"/><circle cx="460" cy="332" r="2" fill="#0a6f85"/><circle cx="476" cy="332" r="2" fill="#0a6f85"/><circle cx="492" cy="332" r="2" fill="#0a6f85"/><circle cx="508" cy="332" r="2" fill="#0a6f85"/><circle cx="524" cy="332" r="2" fill="#0a6f85"/><circle cx="540" cy="332" r="2" fill="#0a6f85"/><circle cx="556" cy="332" r="2" fill="#0a6f85"/><circle cx="572" cy="332" r="2" fill="#0a6f85"/><circle cx="460" cy="348" r="2" fill="#0a6f85"/><circle cx="476" cy="348" r="2" fill="#0a6f85"/><circle cx="492" cy="348" r="2" fill="#0a6f85"/><circle cx="508" cy="348" r="2" fill="#0a6f85"/><circle cx="524" cy="348" r="2" fill="#0a6f85"/><circle cx="540" cy="348" r="2" fill="#0a6f85"/><circle cx="556" cy="348" r="2" fill="#0a6f85"/><circle cx="572" cy="348" r="2" fill="#0a6f85"/><circle cx="460" cy="364" r="2" fill="#0a6f85"/><circle cx="476" cy="364" r="2" fill="#0a6f85"/><circle cx="492" cy="364" r="2" fill="#0a6f85"/><circle cx="508" cy="364" r="2" fill="#0a6f85"/><circle cx="524" cy="364" r="2" fill="#0a6f85"/><circle cx="540" cy="364" r="2" fill="#0a6f85"/><circle cx="556" cy="364" r="2" fill="#0a6f85"/><circle cx="572" cy="364" r="2" fill="#0a6f85"/></g>
  <rect x="40" y="150" width="360" height="120" rx="18" fill="#fff" opacity=".92"/>
  <rect x="64" y="178" width="46" height="8" rx="4" fill="#0a6f85"/>
  <text x="64" y="218" font-family="Urbanist, ui-sans-serif, system-ui, sans-serif" font-size="24" font-weight="800" fill="#0a6f85" text-anchor="start">Fintech</text>
  <rect x="64" y="234" width="220" height="7" rx="3.5" fill="#263137" opacity=".2"/>
  <rect x="64" y="249" width="150" height="7" rx="3.5" fill="#263137" opacity=".12"/>
  <text x="560" y="372" font-family="Urbanist, ui-sans-serif, system-ui, sans-serif" font-size="13" font-weight="700" fill="#0a6f85" text-anchor="end">ElevateBox</text></svg>
