<svg xmlns="http://www.w3.org/2000/svg" width="600" height="400" viewBox="0 0 600 400" fill="none" role="img" aria-label="Architecture article cover">
  <rect width="600" height="400" fill="#FFEBE6"/>
  <circle cx="257.1" cy="83.1" r="8.9" fill="#a63b23" opacity=".12"/><rect x="158.9" y="289.7" width="14.5" height="14.5" rx="3.6" fill="#a63b23" opacity=".1"/><circle cx="267.9" cy="49.1" r="11.1" fill="#a63b23" opacity=".12"/><circle cx="260.3" cy="289.3" r="24.0" fill="#a63b23" opacity=".12"/><circle cx="273.1" cy="336.8" r="13.7" fill="#a63b23" opacity=".12"/><path d="M273.2 364.8 L295.1 321.1 L316.9 364.8 Z" fill="#a63b23" opacity=".1"/><rect x="483.2" y="349.3" width="43.3" height="43.3" rx="10.8" fill="#a63b23" opacity=".1"/>
  <g opacity=".3"><circle cx="460" cy="300" r="2" fill="#a63b23"/><circle cx="476" cy="300" r="2" fill="#a63b23"/><circle cx="492" cy="300" r="2" fill="#a63b23"/><circle cx="508" cy="300" r="2" fill="#a63b23"/><circle cx="524" cy="300" r="2" fill="#a63b23"/><circle cx="540" cy="300" r="2" fill="#a63b23"/><circle cx="556" cy="300" r="2" fill="#a63b23"/><circle cx="572" cy="300" r="2" fill="#a63b23"/><circle cx="460" cy="316" r="2" fill="#a63b23"/><circle cx="476" cy="316" r="2" fill="#a63b23"/><circle cx="492" cy="316" r="2" fill="#a63b23"/><circle cx="508" cy="316" r="2" fill="#a63b23"/><circle cx="524" cy="316" r="2" fill="#a63b23"/><circle cx="540" cy="316" r="2" fill="#a63b23"/><circle cx="556" cy="316" r="2" fill="#a63b23"/><circle cx="572" cy="316" r="2" fill="#a63b23"/><circle cx="460" cy="332" r="2" fill="#a63b23"/><circle cx="476" cy="332" r="2" fill="#a63b23"/><circle cx="492" cy="332" r="2" fill="#a63b23"/><circle cx="508" cy="332" r="2" fill="#a63b23"/><circle cx="524" cy="332" r="2" fill="#a63b23"/><circle cx="540" cy="332" r="2" fill="#a63b23"/><circle cx="556" cy="332" r="2" fill="#a63b23"/><circle cx="572" cy="332" r="2" fill="#a63b23"/><circle cx="460" cy="348" r="2" fill="#a63b23"/><circle cx="476" cy="348" r="2" fill="#a63b23"/><circle cx="492" cy="348" r="2" fill="#a63b23"/><circle cx="508" cy="348" r="2" fill="#a63b23"/><circle cx="524" cy="348" r="2" fill="#a63b23"/><circle cx="540" cy="348" r="2" fill="#a63b23"/><circle cx="556" cy="348" r="2" fill="#a63b23"/><circle cx="572" cy="348" r="2" fill="#a63b23"/><circle cx="460" cy="364" r="2" fill="#a63b23"/><circle cx="476" cy="364" r="2" fill="#a63b23"/><circle cx="492" cy="364" r="2" fill="#a63b23"/><circle cx="508" cy="364" r="2" fill="#a63b23"/><circle cx="524" cy="364" r="2" fill="#a63b23"/><circle cx="540" cy="364" r="2" fill="#a63b23"/><circle cx="556" cy="364" r="2" fill="#a63b23"/><circle cx="572" cy="364" r="2" fill="#a63b23"/></g>
  <rect x="40" y="150" width="360" height="120" rx="18" fill="#fff" opacity=".92"/>
  <rect x="64" y="178" width="46" height="8" rx="4" fill="#a63b23"/>
  <text x="64" y="218" font-family="Urbanist, ui-sans-serif, system-ui, sans-serif" font-size="24" font-weight="800" fill="#a63b23" text-anchor="start">Architecture</text>
  <rect x="64" y="234" width="220" height="7" rx="3.5" fill="#263137" opacity=".2"/>
  <rect x="64" y="249" width="150" height="7" rx="3.5" fill="#263137" opacity=".12"/>
  <text x="560" y="372" font-family="Urbanist, ui-sans-serif, system-ui, sans-serif" font-size="13" font-weight="700" fill="#a63b23" text-anchor="end">ElevateBox</text></svg>
