<svg xmlns="http://www.w3.org/2000/svg" width="260" height="1180" viewBox="0 0 260 1180" fill="none" role="img" aria-label="medibag app screen"><rect width="260" height="1180" fill="#F4F6FA"/>
      <rect width="260" height="196" fill="#013186"/>
      <text x="16" y="50" font-family="Urbanist, ui-sans-serif, system-ui, sans-serif" font-size="17" font-weight="800" fill="#fff" text-anchor="start">MediBag</text>
      <text x="16" y="68" font-family="Urbanist, ui-sans-serif, system-ui, sans-serif" font-size="9.5" font-weight="500" fill="#bcd0f5" text-anchor="start">Your health, organised</text>
      <rect x="16" y="84" width="228" height="58" rx="12" fill="#fff" opacity="0.14"/>
      <text x="32" y="106" font-family="Urbanist, ui-sans-serif, system-ui, sans-serif" font-size="8.5" font-weight="600" fill="#bcd0f5" text-anchor="start">Next appointment</text>
      <text x="32" y="124" font-family="Urbanist, ui-sans-serif, system-ui, sans-serif" font-size="10.5" font-weight="700" fill="#fff" text-anchor="start">Dr. Rao · Tomorrow 10:30</text>
      <rect x="16" y="152" width="228" height="30" rx="15" fill="#fff" opacity="1"/>
   <circle cx="36" cy="167" r="5.5" fill="none" stroke="#013186" stroke-width="1.8"/>
   <path d="M40 171 l4 4" stroke="#013186" stroke-width="1.8" stroke-linecap="round"/>
   <text x="52" y="171" font-family="Urbanist, ui-sans-serif, system-ui, sans-serif" font-size="9.5" font-weight="500" fill="#8b9aa5" text-anchor="start">Search doctors, tests, medicines</text>
      <rect x="16" y="216" width="110" height="72" rx="12" fill="#fff" opacity="1"/>
            <circle cx="44" cy="244" r="13" fill="#3EC0DD" opacity=".3"/>
            <circle cx="44" cy="244" r="5.5" fill="#3EC0DD"/>
            <text x="28" y="276" font-family="Urbanist, ui-sans-serif, system-ui, sans-serif" font-size="10" font-weight="700" fill="#263137" text-anchor="start">Medicines</text><rect x="134" y="216" width="110" height="72" rx="12" fill="#fff" opacity="1"/>
            <circle cx="162" cy="244" r="13" fill="#3EC0DD" opacity=".3"/>
            <circle cx="162" cy="244" r="5.5" fill="#3EC0DD"/>
            <text x="146" y="276" font-family="Urbanist, ui-sans-serif, system-ui, sans-serif" font-size="10" font-weight="700" fill="#263137" text-anchor="start">Lab Tests</text><rect x="16" y="300" width="110" height="72" rx="12" fill="#fff" opacity="1"/>
            <circle cx="44" cy="328" r="13" fill="#3EC0DD" opacity=".3"/>
            <circle cx="44" cy="328" r="5.5" fill="#3EC0DD"/>
            <text x="28" y="360" font-family="Urbanist, ui-sans-serif, system-ui, sans-serif" font-size="10" font-weight="700" fill="#263137" text-anchor="start">Consult</text><rect x="134" y="300" width="110" height="72" rx="12" fill="#fff" opacity="1"/>
            <circle cx="162" cy="328" r="13" fill="#3EC0DD" opacity=".3"/>
            <circle cx="162" cy="328" r="5.5" fill="#3EC0DD"/>
            <text x="146" y="360" font-family="Urbanist, ui-sans-serif, system-ui, sans-serif" font-size="10" font-weight="700" fill="#263137" text-anchor="start">Records</text>
      <text x="16" y="408" font-family="Urbanist, ui-sans-serif, system-ui, sans-serif" font-size="12" font-weight="800" fill="#263137" text-anchor="start">Health summary</text>
      <rect x="16" y="422" width="228" height="96" rx="12" fill="#fff" opacity="1"/>
      <rect x="34" y="466" width="14" height="30" rx="5" fill="#013186" opacity="0.3"/><rect x="64" y="452" width="14" height="44" rx="5" fill="#013186" opacity="0.39"/><rect x="94" y="470" width="14" height="26" rx="5" fill="#013186" opacity="0.48"/><rect x="124" y="444" width="14" height="52" rx="5" fill="#013186" opacity="0.5700000000000001"/><rect x="154" y="458" width="14" height="38" rx="5" fill="#013186" opacity="0.6599999999999999"/><rect x="184" y="438" width="14" height="58" rx="5" fill="#013186" opacity="0.75"/><rect x="214" y="454" width="14" height="42" rx="5" fill="#013186" opacity="0.8400000000000001"/>
      <text x="16" y="552" font-family="Urbanist, ui-sans-serif, system-ui, sans-serif" font-size="12" font-weight="800" fill="#263137" text-anchor="start">Recent orders</text>
      <rect x="16" y="566" width="228" height="54" rx="10" fill="#fff" opacity="1"/>
      <rect x="26" y="576" width="34" height="34" rx="8" fill="#F3F6FA" opacity="1"/><circle cx="43" cy="593" r="9" fill="#013186" opacity=".35"/>
      <rect x="70" y="581" width="108" height="6" rx="3" fill="#263137" opacity="0.24"/>
      <rect x="70" y="595" width="72" height="5" rx="2.5" fill="#263137" opacity="0.14"/>
      <rect x="206" y="586" width="28" height="14" rx="7" fill="#013186" opacity="0.18"/><rect x="16" y="630" width="228" height="54" rx="10" fill="#fff" opacity="1"/>
      <rect x="26" y="640" width="34" height="34" rx="8" fill="#F3F6FA" opacity="1"/><circle cx="43" cy="657" r="9" fill="#013186" opacity=".35"/>
      <rect x="70" y="645" width="100" height="6" rx="3" fill="#263137" opacity="0.24"/>
      <rect x="70" y="659" width="66" height="5" rx="2.5" fill="#263137" opacity="0.14"/>
      <rect x="206" y="650" width="28" height="14" rx="7" fill="#013186" opacity="0.18"/><rect x="16" y="694" width="228" height="54" rx="10" fill="#fff" opacity="1"/>
      <rect x="26" y="704" width="34" height="34" rx="8" fill="#F3F6FA" opacity="1"/><circle cx="43" cy="721" r="9" fill="#013186" opacity=".35"/>
      <rect x="70" y="709" width="92" height="6" rx="3" fill="#263137" opacity="0.24"/>
      <rect x="70" y="723" width="60" height="5" rx="2.5" fill="#263137" opacity="0.14"/>
      <rect x="206" y="714" width="28" height="14" rx="7" fill="#013186" opacity="0.18"/><rect x="16" y="758" width="228" height="54" rx="10" fill="#fff" opacity="1"/>
      <rect x="26" y="768" width="34" height="34" rx="8" fill="#F3F6FA" opacity="1"/><circle cx="43" cy="785" r="9" fill="#013186" opacity=".35"/>
      <rect x="70" y="773" width="84" height="6" rx="3" fill="#263137" opacity="0.24"/>
      <rect x="70" y="787" width="54" height="5" rx="2.5" fill="#263137" opacity="0.14"/>
      <rect x="206" y="778" width="28" height="14" rx="7" fill="#013186" opacity="0.18"/>
      <text x="16" y="836" font-family="Urbanist, ui-sans-serif, system-ui, sans-serif" font-size="12" font-weight="800" fill="#263137" text-anchor="start">Reports</text>
      <rect x="16" y="850" width="228" height="54" rx="10" fill="#fff" opacity="1"/>
      
      <rect x="28" y="865" width="108" height="6" rx="3" fill="#263137" opacity="0.24"/>
      <rect x="28" y="879" width="72" height="5" rx="2.5" fill="#263137" opacity="0.14"/>
      <rect x="206" y="870" width="28" height="14" rx="7" fill="#013186" opacity="0.18"/><rect x="16" y="914" width="228" height="54" rx="10" fill="#fff" opacity="1"/>
      
      <rect x="28" y="929" width="100" height="6" rx="3" fill="#263137" opacity="0.24"/>
      <rect x="28" y="943" width="66" height="5" rx="2.5" fill="#263137" opacity="0.14"/>
      <rect x="206" y="934" width="28" height="14" rx="7" fill="#013186" opacity="0.18"/><rect x="16" y="978" width="228" height="54" rx="10" fill="#fff" opacity="1"/>
      
      <rect x="28" y="993" width="92" height="6" rx="3" fill="#263137" opacity="0.24"/>
      <rect x="28" y="1007" width="60" height="5" rx="2.5" fill="#263137" opacity="0.14"/>
      <rect x="206" y="998" width="28" height="14" rx="7" fill="#013186" opacity="0.18"/>
      <text x="16" y="1064" font-family="Urbanist, ui-sans-serif, system-ui, sans-serif" font-size="12" font-weight="800" fill="#263137" text-anchor="start">Care team</text>
      <rect x="16" y="1078" width="228" height="54" rx="10" fill="#fff" opacity="1"/>
      <rect x="26" y="1088" width="34" height="34" rx="8" fill="#F3F6FA" opacity="1"/><circle cx="43" cy="1105" r="9" fill="#013186" opacity=".35"/>
      <rect x="70" y="1093" width="108" height="6" rx="3" fill="#263137" opacity="0.24"/>
      <rect x="70" y="1107" width="72" height="5" rx="2.5" fill="#263137" opacity="0.14"/>
      <rect x="206" y="1098" width="28" height="14" rx="7" fill="#013186" opacity="0.18"/>
      
  <rect x="0" y="1134" width="260" height="46" rx="0" fill="#fff" opacity="1"/>
  <circle cx="42" cy="1153" r="7"
        fill="#013186"/>
      <rect x="28" y="1166" width="28" height="4" rx="2" fill="#013186" opacity="1"/><circle cx="102" cy="1153" r="7"
        fill="#c9d3d9"/>
      <rect x="88" y="1166" width="28" height="4" rx="2" fill="#d8e0e5" opacity="1"/><circle cx="162" cy="1153" r="7"
        fill="#c9d3d9"/>
      <rect x="148" y="1166" width="28" height="4" rx="2" fill="#d8e0e5" opacity="1"/><circle cx="222" cy="1153" r="7"
        fill="#c9d3d9"/>
      <rect x="208" y="1166" width="28" height="4" rx="2" fill="#d8e0e5" opacity="1"/></svg>
