<svg xmlns="http://www.w3.org/2000/svg" width="520" height="320" viewBox="0 0 520 320" fill="none" role="img" aria-label="Mobile app screens"><defs>
        <filter id="ss" x="-30%" y="-30%" width="160%" height="160%">
          <feDropShadow dx="0" dy="8" stdDeviation="10" flood-color="#000" flood-opacity=".22"/>
        </filter>
      </defs><g transform="translate(26 56) rotate(-12)" filter="url(#ss)">
  <rect width="100" height="200" rx="12" fill="#1b2029"/>
  <rect x="4" y="4" width="92" height="192" rx="10" fill="#EFEAFF"/>
  <rect x="32" y="7" width="36" height="4" rx="2" fill="#1b2029"/>
  <rect x="4" y="4" width="92" height="44" rx="10" fill="#4335A7" opacity=".82"/>
        <circle cx="24" cy="26" r="9" fill="#fff" opacity=".85"/>
        <rect x="40" y="20" width="42" height="5" rx="2.5" fill="#fff" opacity=".85"/>
        <rect x="40" y="30" width="28" height="4" rx="2" fill="#fff" opacity=".55"/><rect x="14" y="58" width="72" height="7" rx="3.5" fill="#4335A7" opacity="0.5"/><rect x="14" y="84" width="62" height="7" rx="3.5" fill="#4335A7" opacity="0.42"/><rect x="14" y="110" width="52" height="7" rx="3.5" fill="#4335A7" opacity="0.33999999999999997"/><rect x="14" y="136" width="42" height="7" rx="3.5" fill="#4335A7" opacity="0.26"/>
  <rect x="34" y="190" width="32" height="3" rx="1.5" fill="#4335A7" opacity=".6"/></g><g transform="translate(150 26) rotate(-4)" filter="url(#ss)">
  <rect width="100" height="200" rx="12" fill="#1b2029"/>
  <rect x="4" y="4" width="92" height="192" rx="10" fill="#E3ECFF"/>
  <rect x="32" y="7" width="36" height="4" rx="2" fill="#1b2029"/>
  <rect x="4" y="4" width="92" height="44" rx="10" fill="#013186" opacity=".82"/>
        <circle cx="24" cy="26" r="9" fill="#fff" opacity=".85"/>
        <rect x="40" y="20" width="42" height="5" rx="2.5" fill="#fff" opacity=".85"/>
        <rect x="40" y="30" width="28" height="4" rx="2" fill="#fff" opacity=".55"/><rect x="14" y="58" width="72" height="7" rx="3.5" fill="#013186" opacity="0.5"/><rect x="14" y="84" width="62" height="7" rx="3.5" fill="#013186" opacity="0.42"/><rect x="14" y="110" width="52" height="7" rx="3.5" fill="#013186" opacity="0.33999999999999997"/><rect x="14" y="136" width="42" height="7" rx="3.5" fill="#013186" opacity="0.26"/>
  <rect x="34" y="190" width="32" height="3" rx="1.5" fill="#013186" opacity=".6"/></g><g transform="translate(274 34) rotate(5)" filter="url(#ss)">
  <rect width="100" height="200" rx="12" fill="#1b2029"/>
  <rect x="4" y="4" width="92" height="192" rx="10" fill="#F0FCFF"/>
  <rect x="32" y="7" width="36" height="4" rx="2" fill="#1b2029"/>
  <rect x="4" y="4" width="92" height="44" rx="10" fill="#3EC0DD" opacity=".82"/>
        <circle cx="24" cy="26" r="9" fill="#fff" opacity=".85"/>
        <rect x="40" y="20" width="42" height="5" rx="2.5" fill="#fff" opacity=".85"/>
        <rect x="40" y="30" width="28" height="4" rx="2" fill="#fff" opacity=".55"/><rect x="14" y="58" width="72" height="7" rx="3.5" fill="#3EC0DD" opacity="0.5"/><rect x="14" y="84" width="62" height="7" rx="3.5" fill="#3EC0DD" opacity="0.42"/><rect x="14" y="110" width="52" height="7" rx="3.5" fill="#3EC0DD" opacity="0.33999999999999997"/><rect x="14" y="136" width="42" height="7" rx="3.5" fill="#3EC0DD" opacity="0.26"/>
  <rect x="34" y="190" width="32" height="3" rx="1.5" fill="#3EC0DD" opacity=".6"/></g><g transform="translate(392 66) rotate(13)" filter="url(#ss)">
  <rect width="100" height="200" rx="12" fill="#1b2029"/>
  <rect x="4" y="4" width="92" height="192" rx="10" fill="#FFF6E9"/>
  <rect x="32" y="7" width="36" height="4" rx="2" fill="#1b2029"/>
  <rect x="4" y="4" width="92" height="44" rx="10" fill="#8a5a12" opacity=".82"/>
        <circle cx="24" cy="26" r="9" fill="#fff" opacity=".85"/>
        <rect x="40" y="20" width="42" height="5" rx="2.5" fill="#fff" opacity=".85"/>
        <rect x="40" y="30" width="28" height="4" rx="2" fill="#fff" opacity=".55"/><rect x="14" y="58" width="72" height="7" rx="3.5" fill="#8a5a12" opacity="0.5"/><rect x="14" y="84" width="62" height="7" rx="3.5" fill="#8a5a12" opacity="0.42"/><rect x="14" y="110" width="52" height="7" rx="3.5" fill="#8a5a12" opacity="0.33999999999999997"/><rect x="14" y="136" width="42" height="7" rx="3.5" fill="#8a5a12" opacity="0.26"/>
  <rect x="34" y="190" width="32" height="3" rx="1.5" fill="#8a5a12" opacity=".6"/></g></svg>
